<svg width="600.000000" height="600.000000" viewBox="0 0 600 600" fill="none" xmlns="http://www.w3.org/2000/svg" xmlns:xlink="http://www.w3.org/1999/xlink">
	<desc>
			Created with Pixso.
	</desc>
	<defs>
		<clipPath id="clip27_1">
			<rect id="Fast version" width="600.000000" height="600.000000" fill="white" fill-opacity="0"/>
		</clipPath>
	</defs>
	<rect id="Fast version" width="600.000000" height="600.000000" fill="#FFFFFF" fill-opacity="0"/>
	<g clip-path="url(#clip27_1)">
		<path id="version" d="M250 50L112.5 50L112.5 100L0 100L0 500L112.5 500L112.5 550L250 550L250 600L600 600L600 0L250 0L250 50ZM25 475L25 125L112.5 125L112.5 475L25 475ZM137.5 525L137.5 75L250 75L250 525L137.5 525ZM275 25L575 25L575 575L275 575L275 25Z" fill="#38A0C8" fill-opacity="1.000000" fill-rule="nonzero"/>
		<path id="path875-5-9-7-3-2-3-9-9-8-0-0-5-87-7" d="M426.5 194C397.36 194 372.5 204.29 351.9 224.89C331.3 245.49 321 270.35 321 299.49C320.99 328.62 331.29 353.49 351.89 374.09C372.49 394.69 397.36 405 426.5 405C455.63 405 480.49 394.7 501.09 374.1C521.69 353.5 532 328.63 532 299.49C532 270.35 521.7 245.49 501.1 224.89C480.5 204.29 455.63 194 426.5 194ZM419.21 241.76L485.58 241.76L418.94 288.76L464.5 288.76L367.41 357.21L388.49 310.24L398.13 288.76L419.21 241.76Z" fill="#38A0C8" fill-opacity="0.976471" fill-rule="nonzero"/>
		<path id="path875-5-9-7-3-2-3-9-9-8-0-0-5-87-7" d="M351.9 224.89C331.3 245.49 321 270.35 321 299.49C320.99 328.62 331.29 353.49 351.89 374.09C372.49 394.69 397.36 405 426.5 405C455.63 405 480.49 394.7 501.09 374.1C521.69 353.5 532 328.63 532 299.49C532 270.35 521.7 245.49 501.1 224.89C480.5 204.29 455.63 194 426.5 194C397.36 194 372.5 204.29 351.9 224.89ZM485.58 241.76L418.94 288.76L464.5 288.76L367.41 357.21L388.49 310.24L398.13 288.76L419.21 241.76L485.58 241.76Z" stroke="#000000" stroke-opacity="0" stroke-width="0.042394"/>
	</g>
</svg>
