<svg width="600.000000" height="600.000000" viewBox="0 0 600 600" fill="none" xmlns="http://www.w3.org/2000/svg" xmlns:xlink="http://www.w3.org/1999/xlink">
	<desc>
			Created with Pixso.
	</desc>
	<defs>
		<clipPath id="clip27_1">
			<rect id="Fast version" width="600.000000" height="600.000000" fill="white" fill-opacity="0"/>
		</clipPath>
	</defs>
	<rect id="Fast version" width="600.000000" height="600.000000" fill="#FFFFFF" fill-opacity="1.000000"/>
	<g clip-path="url(#clip27_1)">
		<path id="version" d="M253.33 66.66L125 66.66L125 113.33L20 113.33L20 486.66L125 486.66L125 533.33L253.33 533.33L253.33 580L580 580L580 20L253.33 20L253.33 66.66ZM43.33 463.33L43.33 136.66L125 136.66L125 463.33L43.33 463.33ZM148.33 510L148.33 90L253.33 90L253.33 510L148.33 510ZM276.66 43.33L556.66 43.33L556.66 556.66L276.66 556.66L276.66 43.33Z" fill="#38A0C8" fill-opacity="1.000000" fill-rule="nonzero"/>
		<path id="path875-5-9-7-3-2-3-9-9-8-0-0-5-87-7" d="M417.5 194C388.36 194 363.5 204.29 342.9 224.89C322.29 245.49 312 270.35 312 299.49C311.99 328.62 322.29 353.49 342.89 374.09C363.49 394.69 388.36 405 417.5 405C446.63 405 471.49 394.7 492.09 374.1C512.69 353.5 523 328.63 523 299.49C523 270.35 512.7 245.49 492.1 224.89C471.5 204.29 446.63 194 417.5 194ZM410.21 241.76L476.58 241.76L409.94 288.76L455.5 288.76L358.41 357.21L379.49 310.24L389.13 288.76L410.21 241.76Z" fill="#38A0C8" fill-opacity="0.976471" fill-rule="nonzero"/>
		<path id="path875-5-9-7-3-2-3-9-9-8-0-0-5-87-7" d="M342.9 224.89C322.29 245.49 312 270.35 312 299.49C311.99 328.62 322.29 353.49 342.89 374.09C363.49 394.69 388.36 405 417.5 405C446.63 405 471.49 394.7 492.09 374.1C512.69 353.5 523 328.63 523 299.49C523 270.35 512.7 245.49 492.1 224.89C471.5 204.29 446.63 194 417.5 194C388.36 194 363.5 204.29 342.9 224.89ZM476.58 241.76L409.94 288.76L455.5 288.76L358.41 357.21L379.49 310.24L389.13 288.76L410.21 241.76L476.58 241.76Z" stroke="#000000" stroke-opacity="0" stroke-width="0.042394"/>
	</g>
</svg>
