<svg width="600.000000" height="600.000000" viewBox="0 0 600 600" fill="none" xmlns="http://www.w3.org/2000/svg" xmlns:xlink="http://www.w3.org/1999/xlink">
	<desc>
			Created with Pixso.
	</desc>
	<defs>
		<clipPath id="clip27_1">
			<rect id="Fast version" width="600.000000" height="600.000000" fill="white" fill-opacity="0"/>
		</clipPath>
	</defs>
	<rect id="Fast version" width="600.000000" height="600.000000" fill="#FFFFFF" fill-opacity="0"/>
	<g clip-path="url(#clip27_1)">
		<path id="version" d="M238 50L124.5 50C117.87 50 112.5 55.37 112.5 62L112.5 88C112.5 94.62 107.12 100 100.5 100L12 100C5.37 100 0 105.37 0 112L0 488C0 494.62 5.37 500 12 500L100.5 500C107.12 500 112.5 505.37 112.5 512L112.5 538C112.5 544.62 117.87 550 124.5 550L238 550C244.62 550 250 555.37 250 562L250 588C250 594.62 255.37 600 262 600L588 600C594.62 600 600 594.62 600 588L600 12C600 5.37 594.62 0 588 0L262 0C255.37 0 250 5.37 250 12L250 38C250 44.62 244.62 50 238 50ZM25 463L25 137C25 130.37 30.37 125 37 125L100.5 125C107.12 125 112.5 130.37 112.5 137L112.5 463C112.5 469.62 107.12 475 100.5 475L37 475C30.37 475 25 469.62 25 463ZM137.5 513L137.5 87C137.5 80.37 142.87 75 149.5 75L238 75C244.62 75 250 80.37 250 87L250 513C250 519.62 244.62 525 238 525L149.5 525C142.87 525 137.5 519.62 137.5 513ZM287 25L563 25C569.62 25 575 30.37 575 37L575 563C575 569.62 569.62 575 563 575L287 575C280.37 575 275 569.62 275 563L275 37C275 30.37 280.37 25 287 25Z" fill="#38A0C8" fill-opacity="1.000000" fill-rule="nonzero"/>
		<path id="path875-5-9-7-3-2-3-9-9-8-0-0-5-87-7" d="M426.5 194C397.36 194 372.5 204.29 351.9 224.89C331.3 245.49 321 270.35 321 299.49C320.99 328.62 331.29 353.49 351.89 374.09C372.49 394.69 397.36 405 426.5 405C455.63 405 480.49 394.7 501.09 374.1C521.69 353.5 532 328.63 532 299.49C532 270.35 521.7 245.49 501.1 224.89C480.5 204.29 455.63 194 426.5 194ZM419.21 241.76L485.58 241.76L418.94 288.76L464.5 288.76L367.41 357.21L388.49 310.24L398.13 288.76L419.21 241.76Z" fill="#38A0C8" fill-opacity="0.976471" fill-rule="nonzero"/>
		<path id="path875-5-9-7-3-2-3-9-9-8-0-0-5-87-7" d="M351.9 224.89C331.3 245.49 321 270.35 321 299.49C320.99 328.62 331.29 353.49 351.89 374.09C372.49 394.69 397.36 405 426.5 405C455.63 405 480.49 394.7 501.09 374.1C521.69 353.5 532 328.63 532 299.49C532 270.35 521.7 245.49 501.1 224.89C480.5 204.29 455.63 194 426.5 194C397.36 194 372.5 204.29 351.9 224.89ZM485.58 241.76L418.94 288.76L464.5 288.76L367.41 357.21L388.49 310.24L398.13 288.76L419.21 241.76L485.58 241.76Z" stroke="#000000" stroke-opacity="0" stroke-width="0.042394"/>
	</g>
</svg>
